<svg xmlns="http://www.w3.org/2000/svg" viewBox="0 0 1024 1024" height="24">
    <defs>
        <style>.a{fill:none;stroke:currentColor;stroke-linecap:round;stroke-linejoin:round;stroke-width:64px;}</style>
    </defs>
    <title>editorIcon</title>
    <path class="a" style="fill:currentColor" d="M961.6 484.8c-12.8 0-24 11.2-24 24v302.4c0 67.2-54.4 121.6-121.6 121.6H233.6c-67.2 0-121.6-54.4-121.6-121.6V228.8c0-67.2 54.4-121.6 121.6-121.6h305.6c12.8 0 24-11.2 24-24s-11.2-24-24-24H233.6C139.2 59.2 64 134.4 64 228.8v582.4c0 94.4 76.8 169.6 169.6 169.6H816c94.4 0 169.6-76.8 169.6-169.6V510.4c0-14.4-9.6-25.6-24-25.6z" />
    <path class="a" style="fill:currentColor" d="M286.4 764.8l-14.4 44.8 44.8-14.4c156.8-49.6 158.4-52.8 164.8-57.6L976 243.2c14.4-14.4 20.8-32 20.8-51.2 0-19.2-8-38.4-20.8-51.2l-33.6-33.6c-28.8-28.8-75.2-28.8-102.4 0l-496 492.8c-4.8 4.8-8 8-57.6 164.8zM873.6 139.2c9.6-9.6 25.6-9.6 33.6 0l33.6 33.6c4.8 4.8 6.4 11.2 6.4 17.6 0 6.4-3.2 12.8-6.4 17.6l-67.2 67.2-68.8-68.8 68.8-67.2zM380.8 632l390.4-390.4 68.8 68.8-390.4 390.4c-12.8 4.8-56 19.2-102.4 33.6 14.4-48 28.8-91.2 33.6-102.4z" />
</svg>